<svg width="51" height="51" viewBox="0 0 51 51" fill="none" xmlns="http://www.w3.org/2000/svg">
<circle cx="25.5" cy="25.5" r="25.5" fill="#F7515C" fill-opacity="0.05"/>
<path d="M24.56 33.3C24.2 33.3 23.82 33.2733 23.42 33.22C23.02 33.18 22.6333 33.12 22.26 33.04C21.8867 32.96 21.5467 32.8733 21.24 32.78C20.9333 32.6867 20.6933 32.6 20.52 32.52L21.1 30.04C21.4467 30.1867 21.8867 30.3467 22.42 30.52C22.9667 30.68 23.64 30.76 24.44 30.76C25.36 30.76 26.0333 30.5867 26.46 30.24C26.8867 29.8933 27.1 29.4267 27.1 28.84C27.1 28.48 27.02 28.18 26.86 27.94C26.7133 27.6867 26.5067 27.4867 26.24 27.34C25.9733 27.18 25.6533 27.0733 25.28 27.02C24.92 26.9533 24.5333 26.92 24.12 26.92H22.96V24.52H24.28C24.5733 24.52 24.8533 24.4933 25.12 24.44C25.4 24.3867 25.6467 24.3 25.86 24.18C26.0733 24.0467 26.24 23.8733 26.36 23.66C26.4933 23.4333 26.56 23.1533 26.56 22.82C26.56 22.5667 26.5067 22.3467 26.4 22.16C26.2933 21.9733 26.1533 21.82 25.98 21.7C25.82 21.58 25.6267 21.4933 25.4 21.44C25.1867 21.3733 24.9667 21.34 24.74 21.34C24.1667 21.34 23.6333 21.4267 23.14 21.6C22.66 21.7733 22.22 21.9867 21.82 22.24L20.76 20.06C20.9733 19.9267 21.22 19.7867 21.5 19.64C21.7933 19.4933 22.1133 19.36 22.46 19.24C22.8067 19.12 23.1733 19.02 23.56 18.94C23.96 18.86 24.38 18.82 24.82 18.82C25.6333 18.82 26.3333 18.92 26.92 19.12C27.52 19.3067 28.0133 19.58 28.4 19.94C28.7867 20.2867 29.0733 20.7 29.26 21.18C29.4467 21.6467 29.54 22.16 29.54 22.72C29.54 23.2667 29.3867 23.8 29.08 24.32C28.7733 24.8267 28.36 25.2133 27.84 25.48C28.56 25.7733 29.1133 26.2133 29.5 26.8C29.9 27.3733 30.1 28.0667 30.1 28.88C30.1 29.52 29.9933 30.1133 29.78 30.66C29.5667 31.1933 29.2333 31.66 28.78 32.06C28.3267 32.4467 27.7467 32.7533 27.04 32.98C26.3467 33.1933 25.52 33.3 24.56 33.3Z" fill="#F7515C"/>
</svg>
