<svg width="51" height="51" viewBox="0 0 51 51" fill="none" xmlns="http://www.w3.org/2000/svg">
<circle cx="25.5" cy="25.5" r="25.5" fill="#F7515C" fill-opacity="0.05"/>
<path d="M29.92 22.78C29.92 23.2867 29.82 23.7733 29.62 24.24C29.42 24.7067 29.16 25.16 28.84 25.6C28.52 26.0267 28.16 26.44 27.76 26.84C27.36 27.24 26.9667 27.62 26.58 27.98C26.38 28.1667 26.16 28.38 25.92 28.62C25.6933 28.8467 25.4733 29.08 25.26 29.32C25.0467 29.56 24.8533 29.7867 24.68 30C24.52 30.2 24.42 30.3667 24.38 30.5H30.34V33H21.1C21.0733 32.8533 21.06 32.6667 21.06 32.44C21.06 32.2133 21.06 32.0533 21.06 31.96C21.06 31.32 21.16 30.7333 21.36 30.2C21.5733 29.6667 21.8467 29.1733 22.18 28.72C22.5133 28.2533 22.8867 27.82 23.3 27.42C23.7267 27.02 24.1467 26.62 24.56 26.22C24.88 25.9133 25.18 25.6267 25.46 25.36C25.74 25.08 25.9867 24.8133 26.2 24.56C26.4133 24.2933 26.58 24.0333 26.7 23.78C26.82 23.5133 26.88 23.2467 26.88 22.98C26.88 22.3933 26.7133 21.98 26.38 21.74C26.0467 21.5 25.6333 21.38 25.14 21.38C24.78 21.38 24.44 21.44 24.12 21.56C23.8133 21.6667 23.5267 21.8 23.26 21.96C23.0067 22.1067 22.7867 22.26 22.6 22.42C22.4133 22.5667 22.2733 22.6867 22.18 22.78L20.7 20.7C21.2867 20.1533 21.9667 19.7067 22.74 19.36C23.5267 19 24.3667 18.82 25.26 18.82C26.0733 18.82 26.7733 18.9133 27.36 19.1C27.9467 19.2867 28.4267 19.5533 28.8 19.9C29.1867 20.2333 29.4667 20.6467 29.64 21.14C29.8267 21.62 29.92 22.1667 29.92 22.78Z" fill="#F7515C"/>
</svg>
