<svg width="412" height="76" viewBox="0 0 412 76" fill="none" xmlns="http://www.w3.org/2000/svg">
<mask id="path-1-outside-1_28_0" maskUnits="userSpaceOnUse" x="-2" y="-2" width="417" height="80" fill="black">
<rect fill="white" x="-2" y="-2" width="417" height="80"/>
<path d="M30.6 5C36.8 5 42.1667 6.03333 46.7 8.1C51.3 10.1667 54.8333 13.1 57.3 16.9C59.7667 20.7 61 25.2 61 30.4C61 35.5333 59.7667 40.0333 57.3 43.9C54.8333 47.7 51.3 50.6333 46.7 52.7C42.1667 54.7 36.8 55.7 30.6 55.7H16.5V75H0.3V5H30.6ZM29.7 42.5C34.5667 42.5 38.2667 41.4667 40.8 39.4C43.3333 37.2667 44.6 34.2667 44.6 30.4C44.6 26.4667 43.3333 23.4667 40.8 21.4C38.2667 19.2667 34.5667 18.2 29.7 18.2H16.5V42.5H29.7ZM86.3656 28.3C88.2323 25.7 90.7323 23.7333 93.8656 22.4C97.0656 21.0667 100.732 20.4 104.866 20.4V34.8C103.132 34.6667 101.966 34.6 101.366 34.6C96.899 34.6 93.399 35.8667 90.8656 38.4C88.3323 40.8667 87.0656 44.6 87.0656 49.6V75H71.4656V21.2H86.3656V28.3ZM139.253 75.8C133.586 75.8 128.486 74.6333 123.953 72.3C119.486 69.9 115.986 66.6 113.453 62.4C110.92 58.2 109.653 53.4333 109.653 48.1C109.653 42.7667 110.92 38 113.453 33.8C115.986 29.6 119.486 26.3333 123.953 24C128.486 21.6 133.586 20.4 139.253 20.4C144.92 20.4 149.986 21.6 154.453 24C158.92 26.3333 162.42 29.6 164.953 33.8C167.486 38 168.753 42.7667 168.753 48.1C168.753 53.4333 167.486 58.2 164.953 62.4C162.42 66.6 158.92 69.9 154.453 72.3C149.986 74.6333 144.92 75.8 139.253 75.8ZM139.253 63C143.253 63 146.52 61.6667 149.053 59C151.653 56.2667 152.953 52.6333 152.953 48.1C152.953 43.5667 151.653 39.9667 149.053 37.3C146.52 34.5667 143.253 33.2 139.253 33.2C135.253 33.2 131.953 34.5667 129.353 37.3C126.753 39.9667 125.453 43.5667 125.453 48.1C125.453 52.6333 126.753 56.2667 129.353 59C131.953 61.6667 135.253 63 139.253 63ZM233.98 0.799996V75H219.08V68.8C215.214 73.4667 209.614 75.8 202.28 75.8C197.214 75.8 192.614 74.6667 188.48 72.4C184.414 70.1333 181.214 66.9 178.88 62.7C176.547 58.5 175.38 53.6333 175.38 48.1C175.38 42.5667 176.547 37.7 178.88 33.5C181.214 29.3 184.414 26.0667 188.48 23.8C192.614 21.5333 197.214 20.4 202.28 20.4C209.147 20.4 214.514 22.5667 218.38 26.9V0.799996H233.98ZM204.98 63C208.914 63 212.18 61.6667 214.78 59C217.38 56.2667 218.68 52.6333 218.68 48.1C218.68 43.5667 217.38 39.9667 214.78 37.3C212.18 34.5667 208.914 33.2 204.98 33.2C200.98 33.2 197.68 34.5667 195.08 37.3C192.48 39.9667 191.18 43.5667 191.18 48.1C191.18 52.6333 192.48 56.2667 195.08 59C197.68 61.6667 200.98 63 204.98 63ZM302.619 21.2V75H287.819V68.6C285.752 70.9333 283.285 72.7333 280.419 74C277.552 75.2 274.452 75.8 271.119 75.8C264.052 75.8 258.452 73.7667 254.319 69.7C250.185 65.6333 248.119 59.6 248.119 51.6V21.2H263.719V49.3C263.719 57.9667 267.352 62.3 274.619 62.3C278.352 62.3 281.352 61.1 283.619 58.7C285.885 56.2333 287.019 52.6 287.019 47.8V21.2H302.619ZM343.071 75.8C337.338 75.8 332.171 74.6333 327.571 72.3C323.038 69.9 319.471 66.6 316.871 62.4C314.338 58.2 313.071 53.4333 313.071 48.1C313.071 42.7667 314.338 38 316.871 33.8C319.471 29.6 323.038 26.3333 327.571 24C332.171 21.6 337.338 20.4 343.071 20.4C348.738 20.4 353.671 21.6 357.871 24C362.138 26.3333 365.238 29.7 367.171 34.1L355.071 40.6C352.271 35.6667 348.238 33.2 342.971 33.2C338.904 33.2 335.538 34.5333 332.871 37.2C330.204 39.8667 328.871 43.5 328.871 48.1C328.871 52.7 330.204 56.3333 332.871 59C335.538 61.6667 338.904 63 342.971 63C348.304 63 352.338 60.5333 355.071 55.6L367.171 62.2C365.238 66.4667 362.138 69.8 357.871 72.2C353.671 74.6 348.738 75.8 343.071 75.8ZM411.634 72.4C410.101 73.5333 408.201 74.4 405.934 75C403.734 75.5333 401.401 75.8 398.934 75.8C392.534 75.8 387.568 74.1667 384.034 70.9C380.568 67.6333 378.834 62.8333 378.834 56.5V34.4H370.534V22.4H378.834V9.3H394.434V22.4H407.834V34.4H394.434V56.3C394.434 58.5667 395.001 60.3333 396.134 61.6C397.334 62.8 399.001 63.4 401.134 63.4C403.601 63.4 405.701 62.7333 407.434 61.4L411.634 72.4Z"/>
</mask>
<path d="M46.7 8.1L45.8704 9.91984L45.8804 9.92433L46.7 8.1ZM57.3 43.9L58.9776 44.9889L58.9819 44.9823L58.9861 44.9756L57.3 43.9ZM46.7 52.7L47.5073 54.5299L47.5196 54.5243L46.7 52.7ZM16.5 55.7V53.7H14.5V55.7H16.5ZM16.5 75V77H18.5V75H16.5ZM0.3 75H-1.7V77H0.3V75ZM0.3 5V3H-1.7V5H0.3ZM40.8 39.4L42.0643 40.9497L42.0763 40.9399L42.0883 40.9298L40.8 39.4ZM40.8 21.4L39.5117 22.9298L39.5237 22.9399L39.5357 22.9497L40.8 21.4ZM16.5 18.2V16.2H14.5V18.2H16.5ZM16.5 42.5H14.5V44.5H16.5V42.5ZM30.6 7C36.5818 7 41.653 7.99719 45.8704 9.91981L47.5296 6.28018C42.6803 4.06947 37.0182 3 30.6 3V7ZM45.8804 9.92433C50.1707 11.8519 53.3883 14.5472 55.6224 17.9889L58.9776 15.8111C56.2783 11.6528 52.4293 8.48146 47.5196 6.27566L45.8804 9.92433ZM55.6224 17.9889C57.8489 21.4188 59 25.5279 59 30.4H63C63 24.8721 61.6845 19.9811 58.9776 15.8111L55.6224 17.9889ZM59 30.4C59 35.1991 57.8517 39.3164 55.6139 42.8244L58.9861 44.9756C61.6816 40.7503 63 35.8676 63 30.4H59ZM55.6224 42.8111C53.3883 46.2528 50.1707 48.9481 45.8804 50.8757L47.5196 54.5243C52.4293 52.3185 56.2783 49.1472 58.9776 44.9889L55.6224 42.8111ZM45.8927 50.8702C41.6691 52.7335 36.5897 53.7 30.6 53.7V57.7C37.0103 57.7 42.6642 56.6665 47.5073 54.5298L45.8927 50.8702ZM30.6 53.7H16.5V57.7H30.6V53.7ZM14.5 55.7V75H18.5V55.7H14.5ZM16.5 73H0.3V77H16.5V73ZM2.3 75V5H-1.7V75H2.3ZM0.3 7H30.6V3H0.3V7ZM29.7 44.5C34.8106 44.5 39.0359 43.4202 42.0643 40.9497L39.5358 37.8503C37.4974 39.5131 34.3228 40.5 29.7 40.5V44.5ZM42.0883 40.9298C45.1506 38.351 46.6 34.7469 46.6 30.4H42.6C42.6 33.7865 41.5161 36.1823 39.5117 37.8702L42.0883 40.9298ZM46.6 30.4C46.6 26.0008 45.1586 22.3746 42.0643 19.8503L39.5357 22.9497C41.5081 24.5587 42.6 26.9325 42.6 30.4H46.6ZM42.0883 19.8702C39.0583 17.3186 34.823 16.2 29.7 16.2V20.2C34.3104 20.2 37.475 21.2147 39.5117 22.9298L42.0883 19.8702ZM29.7 16.2H16.5V20.2H29.7V16.2ZM14.5 18.2V42.5H18.5V18.2H14.5ZM16.5 44.5H29.7V40.5H16.5V44.5ZM86.3656 28.3H84.3656V34.515L87.9903 29.4664L86.3656 28.3ZM93.8656 22.4L93.0964 20.5538L93.0894 20.5567L93.0825 20.5597L93.8656 22.4ZM104.866 20.4H106.866V18.4H104.866V20.4ZM104.866 34.8L104.712 36.7941L106.866 36.9598V34.8H104.866ZM90.8656 38.4L92.2609 39.8329L92.2704 39.8236L92.2798 39.8142L90.8656 38.4ZM87.0656 75V77H89.0656V75H87.0656ZM71.4656 75H69.4656V77H71.4656V75ZM71.4656 21.2V19.2H69.4656V21.2H71.4656ZM86.3656 21.2H88.3656V19.2H86.3656V21.2ZM87.9903 29.4664C89.6296 27.183 91.8299 25.4398 94.6487 24.2403L93.0825 20.5597C89.6347 22.0268 86.835 24.217 84.741 27.1336L87.9903 29.4664ZM94.6349 24.2462C97.549 23.0319 100.947 22.4 104.866 22.4V18.4C100.518 18.4 96.5822 19.1014 93.0964 20.5538L94.6349 24.2462ZM102.866 20.4V34.8H106.866V20.4H102.866ZM105.019 32.8059C103.296 32.6734 102.055 32.6 101.366 32.6V36.6C101.877 36.6 102.968 36.6599 104.712 36.7941L105.019 32.8059ZM101.366 32.6C96.5069 32.6 92.4475 33.9897 89.4514 36.9858L92.2798 39.8142C94.3504 37.7436 97.291 36.6 101.366 36.6V32.6ZM89.4704 36.9671C86.4135 39.9435 85.0656 44.2872 85.0656 49.6H89.0656C89.0656 44.9128 90.2511 41.7898 92.2609 39.8329L89.4704 36.9671ZM85.0656 49.6V75H89.0656V49.6H85.0656ZM87.0656 73H71.4656V77H87.0656V73ZM73.4656 75V21.2H69.4656V75H73.4656ZM71.4656 23.2H86.3656V19.2H71.4656V23.2ZM84.3656 21.2V28.3H88.3656V21.2H84.3656ZM123.953 72.3L123.007 74.0618L123.022 74.0702L123.038 74.0783L123.953 72.3ZM113.453 62.4L111.741 63.433L113.453 62.4ZM113.453 33.8L111.741 32.767L113.453 33.8ZM123.953 24L124.879 25.7727L124.889 25.7676L123.953 24ZM154.453 24L153.507 25.7618L153.517 25.7673L153.527 25.7727L154.453 24ZM164.953 33.8L166.666 32.767L164.953 33.8ZM164.953 62.4L166.666 63.433L164.953 62.4ZM154.453 72.3L155.379 74.0727L155.389 74.0673L155.4 74.0618L154.453 72.3ZM149.053 59L147.604 57.6216L147.603 57.6225L149.053 59ZM149.053 37.3L147.586 38.6595L147.603 38.6781L147.621 38.6962L149.053 37.3ZM129.353 37.3L130.785 38.6962L130.794 38.6874L130.802 38.6784L129.353 37.3ZM129.353 59L127.904 60.3784L127.913 60.3874L127.921 60.3962L129.353 59ZM139.253 73.8C133.869 73.8 129.088 72.6937 124.868 70.5217L123.038 74.0783C127.885 76.5729 133.304 77.8 139.253 77.8V73.8ZM124.9 70.5382C120.738 68.302 117.507 65.2491 115.166 61.367L111.741 63.433C114.466 67.9509 118.235 71.498 123.007 74.0618L124.9 70.5382ZM115.166 61.367C112.837 57.5058 111.653 53.1022 111.653 48.1H107.653C107.653 53.7645 109.003 58.8942 111.741 63.433L115.166 61.367ZM111.653 48.1C111.653 43.0978 112.837 38.6942 115.166 34.833L111.741 32.767C109.003 37.3058 107.653 42.4355 107.653 48.1H111.653ZM115.166 34.833C117.504 30.9559 120.728 27.9411 124.879 25.7727L123.027 22.2273C118.245 24.7255 114.469 28.2441 111.741 32.767L115.166 34.833ZM124.889 25.7676C129.105 23.5357 133.878 22.4 139.253 22.4V18.4C133.295 18.4 127.868 19.6643 123.017 22.2324L124.889 25.7676ZM139.253 22.4C144.629 22.4 149.364 23.5358 153.507 25.7618L155.4 22.2382C150.609 19.6642 145.211 18.4 139.253 18.4V22.4ZM153.527 25.7727C157.678 27.9411 160.902 30.9559 163.241 34.833L166.666 32.767C163.938 28.2441 160.161 24.7255 155.379 22.2273L153.527 25.7727ZM163.241 34.833C165.57 38.6942 166.753 43.0978 166.753 48.1H170.753C170.753 42.4355 169.403 37.3058 166.666 32.767L163.241 34.833ZM166.753 48.1C166.753 53.1022 165.57 57.5058 163.241 61.367L166.666 63.433C169.403 58.8942 170.753 53.7645 170.753 48.1H166.753ZM163.241 61.367C160.899 65.2491 157.668 68.302 153.507 70.5382L155.4 74.0618C160.171 71.498 163.941 67.9509 166.666 63.433L163.241 61.367ZM153.527 70.5273C149.38 72.6936 144.638 73.8 139.253 73.8V77.8C145.202 77.8 150.593 76.5731 155.379 74.0727L153.527 70.5273ZM139.253 65C143.748 65 147.557 63.4787 150.503 60.3775L147.603 57.6225C145.483 59.8546 142.758 61 139.253 61V65ZM150.502 60.3784C153.525 57.2007 154.953 53.0366 154.953 48.1H150.953C150.953 52.2301 149.781 55.3327 147.604 57.6216L150.502 60.3784ZM154.953 48.1C154.953 43.1653 153.525 39.022 150.485 35.9038L147.621 38.6962C149.781 40.9113 150.953 43.9681 150.953 48.1H154.953ZM150.52 35.9405C147.578 32.7664 143.764 31.2 139.253 31.2V35.2C142.742 35.2 145.461 36.3669 147.586 38.6595L150.52 35.9405ZM139.253 31.2C134.742 31.2 130.906 32.7653 127.904 35.9216L130.802 38.6784C133 36.368 135.764 35.2 139.253 35.2V31.2ZM127.921 35.9038C124.881 39.022 123.453 43.1653 123.453 48.1H127.453C127.453 43.9681 128.625 40.9113 130.785 38.6962L127.921 35.9038ZM123.453 48.1C123.453 53.0366 124.881 57.2007 127.904 60.3784L130.802 57.6216C128.625 55.3327 127.453 52.2301 127.453 48.1H123.453ZM127.921 60.3962C130.927 63.4796 134.758 65 139.253 65V61C135.748 61 132.979 59.8538 130.785 57.6038L127.921 60.3962ZM233.98 0.799995H235.98V-1.2H233.98V0.799995ZM233.98 75V77H235.98V75H233.98ZM219.08 75H217.08V77H219.08V75ZM219.08 68.8H221.08V63.2515L217.54 67.524L219.08 68.8ZM188.48 72.4L187.507 74.147L187.519 74.1536L188.48 72.4ZM178.88 62.7L180.629 61.7287L178.88 62.7ZM178.88 33.5L180.629 34.4713L178.88 33.5ZM188.48 23.8L187.519 22.0463L187.507 22.053L188.48 23.8ZM218.38 26.9L216.888 28.2316L220.38 32.1453V26.9H218.38ZM218.38 0.799995V-1.2H216.38V0.799995H218.38ZM214.78 59L216.212 60.3962L216.221 60.3874L216.23 60.3784L214.78 59ZM214.78 37.3L213.331 38.6784L213.34 38.6874L213.348 38.6962L214.78 37.3ZM195.08 37.3L196.512 38.6962L196.521 38.6874L196.53 38.6784L195.08 37.3ZM195.08 59L193.631 60.3784L193.64 60.3874L193.648 60.3962L195.08 59ZM231.98 0.799995V75H235.98V0.799995H231.98ZM233.98 73H219.08V77H233.98V73ZM221.08 75V68.8H217.08V75H221.08ZM217.54 67.524C214.134 71.6356 209.156 73.8 202.28 73.8V77.8C210.072 77.8 216.294 75.2977 220.621 70.076L217.54 67.524ZM202.28 73.8C197.524 73.8 193.259 72.7394 189.442 70.6464L187.519 74.1536C191.969 76.5939 196.904 77.8 202.28 77.8V73.8ZM189.454 70.653C185.724 68.5738 182.787 65.614 180.629 61.7287L177.132 63.6713C179.64 68.186 183.104 71.6929 187.507 74.147L189.454 70.653ZM180.629 61.7287C178.484 57.8683 177.38 53.3455 177.38 48.1H173.38C173.38 53.9211 174.61 59.1317 177.132 63.6713L180.629 61.7287ZM177.38 48.1C177.38 42.8545 178.484 38.3317 180.629 34.4713L177.132 32.5287C174.61 37.0683 173.38 42.2789 173.38 48.1H177.38ZM180.629 34.4713C182.787 30.586 185.724 27.6262 189.454 25.547L187.507 22.053C183.104 24.5071 179.64 28.014 177.132 32.5287L180.629 34.4713ZM189.442 25.5536C193.259 23.4606 197.524 22.4 202.28 22.4V18.4C196.904 18.4 191.969 19.6061 187.519 22.0464L189.442 25.5536ZM202.28 22.4C208.691 22.4 213.471 24.4016 216.888 28.2316L219.873 25.5684C215.557 20.7317 209.603 18.4 202.28 18.4V22.4ZM220.38 26.9V0.799995H216.38V26.9H220.38ZM218.38 2.8H233.98V-1.2H218.38V2.8ZM204.98 65C209.419 65 213.213 63.4725 216.212 60.3962L213.348 57.6038C211.148 59.8609 208.408 61 204.98 61V65ZM216.23 60.3784C219.252 57.2007 220.68 53.0366 220.68 48.1H216.68C216.68 52.2301 215.509 55.3327 213.331 57.6216L216.23 60.3784ZM220.68 48.1C220.68 43.1653 219.253 39.022 216.212 35.9038L213.348 38.6962C215.508 40.9113 216.68 43.9681 216.68 48.1H220.68ZM216.23 35.9216C213.234 32.7727 209.435 31.2 204.98 31.2V35.2C208.392 35.2 211.127 36.3606 213.331 38.6784L216.23 35.9216ZM204.98 31.2C200.47 31.2 196.634 32.7653 193.631 35.9216L196.53 38.6784C198.727 36.368 201.491 35.2 204.98 35.2V31.2ZM193.648 35.9038C190.608 39.022 189.18 43.1653 189.18 48.1H193.18C193.18 43.9681 194.353 40.9113 196.512 38.6962L193.648 35.9038ZM189.18 48.1C189.18 53.0366 190.609 57.2007 193.631 60.3784L196.53 57.6216C194.352 55.3327 193.18 52.2301 193.18 48.1H189.18ZM193.648 60.3962C196.655 63.4796 200.486 65 204.98 65V61C201.475 61 198.706 59.8538 196.512 57.6038L193.648 60.3962ZM302.619 21.2H304.619V19.2H302.619V21.2ZM302.619 75V77H304.619V75H302.619ZM287.819 75H285.819V77H287.819V75ZM287.819 68.6H289.819V63.3255L286.322 67.2739L287.819 68.6ZM280.419 74L281.191 75.8449L281.209 75.8373L281.227 75.8294L280.419 74ZM254.319 69.7L255.721 68.2743L254.319 69.7ZM248.119 21.2V19.2H246.119V21.2H248.119ZM263.719 21.2H265.719V19.2H263.719V21.2ZM283.619 58.7L285.073 60.0732L285.082 60.0633L285.091 60.0533L283.619 58.7ZM287.019 21.2V19.2H285.019V21.2H287.019ZM300.619 21.2V75H304.619V21.2H300.619ZM302.619 73H287.819V77H302.619V73ZM289.819 75V68.6H285.819V75H289.819ZM286.322 67.2739C284.447 69.3907 282.215 71.0196 279.61 72.1706L281.227 75.8294C284.355 74.4471 287.057 72.476 289.316 69.9261L286.322 67.2739ZM279.646 72.1551C277.042 73.2455 274.206 73.8 271.119 73.8V77.8C274.698 77.8 278.062 77.1545 281.191 75.8449L279.646 72.1551ZM271.119 73.8C264.455 73.8 259.402 71.8955 255.721 68.2743L252.916 71.1257C257.502 75.6379 263.649 77.8 271.119 77.8V73.8ZM255.721 68.2743C252.097 64.7081 250.119 59.2721 250.119 51.6H246.119C246.119 59.9279 248.274 66.5586 252.916 71.1257L255.721 68.2743ZM250.119 51.6V21.2H246.119V51.6H250.119ZM248.119 23.2H263.719V19.2H248.119V23.2ZM261.719 21.2V49.3H265.719V21.2H261.719ZM261.719 49.3C261.719 53.8641 262.668 57.6598 264.911 60.335C267.211 63.0777 270.576 64.3 274.619 64.3V60.3C271.395 60.3 269.31 59.3556 267.976 57.765C266.586 56.1069 265.719 53.4025 265.719 49.3H261.719ZM274.619 64.3C278.823 64.3 282.377 62.9275 285.073 60.0732L282.165 57.3268C280.327 59.2725 277.881 60.3 274.619 60.3V64.3ZM285.091 60.0533C287.819 57.0847 289.019 52.8857 289.019 47.8H285.019C285.019 52.3143 283.952 55.382 282.146 57.3467L285.091 60.0533ZM289.019 47.8V21.2H285.019V47.8H289.019ZM287.019 23.2H302.619V19.2H287.019V23.2ZM327.571 72.3L326.635 74.0676L326.651 74.0758L326.666 74.0837L327.571 72.3ZM316.871 62.4L315.159 63.433L315.164 63.4429L315.171 63.4527L316.871 62.4ZM316.871 33.8L315.171 32.7473L315.164 32.7571L315.159 32.767L316.871 33.8ZM327.571 24L328.486 25.7783L328.496 25.7732L327.571 24ZM357.871 24L356.879 25.7365L356.895 25.7458L356.911 25.7547L357.871 24ZM367.171 34.1L368.118 35.8619L369.746 34.9873L369.002 33.2955L367.171 34.1ZM355.071 40.6L353.332 41.5872L354.296 43.2866L356.018 42.3619L355.071 40.6ZM332.871 37.2L331.457 35.7858L332.871 37.2ZM355.071 55.6L356.029 53.8442L354.285 52.8928L353.322 54.6307L355.071 55.6ZM367.171 62.2L368.993 63.0255L369.759 61.3336L368.129 60.4442L367.171 62.2ZM357.871 72.2L356.891 70.4568L356.879 70.4635L357.871 72.2ZM343.071 73.8C337.617 73.8 332.765 72.6922 328.476 70.5163L326.666 74.0837C331.577 76.5745 337.059 77.8 343.071 77.8V73.8ZM328.507 70.5324C324.275 68.2919 320.977 65.2334 318.572 61.3473L315.171 63.4527C317.965 67.9666 321.801 71.5081 326.635 74.0676L328.507 70.5324ZM318.584 61.367C316.255 57.5058 315.071 53.1022 315.071 48.1H311.071C311.071 53.7645 312.421 58.8942 315.159 63.433L318.584 61.367ZM315.071 48.1C315.071 43.0978 316.255 38.6942 318.584 34.833L315.159 32.767C312.421 37.3058 311.071 42.4355 311.071 48.1H315.071ZM318.572 34.8527C320.974 30.9716 324.265 27.9511 328.486 25.7783L326.656 22.2217C321.811 24.7156 317.968 28.2284 315.171 32.7473L318.572 34.8527ZM328.496 25.7732C332.782 23.5373 337.625 22.4 343.071 22.4V18.4C337.05 18.4 331.561 19.6627 326.646 22.2268L328.496 25.7732ZM343.071 22.4C348.45 22.4 353.029 23.5367 356.879 25.7365L358.863 22.2635C354.313 19.6633 349.026 18.4 343.071 18.4V22.4ZM356.911 25.7547C360.796 27.8789 363.587 30.9139 365.34 34.9045L369.002 33.2955C366.889 28.486 363.48 24.7877 358.831 22.2453L356.911 25.7547ZM366.225 32.3381L354.125 38.8381L356.018 42.3619L368.118 35.8619L366.225 32.3381ZM356.81 39.6128C353.689 34.1125 349.023 31.2 342.971 31.2V35.2C347.453 35.2 350.854 37.2208 353.332 41.5872L356.81 39.6128ZM342.971 31.2C338.42 31.2 334.53 32.7128 331.457 35.7858L334.285 38.6142C336.546 36.3539 339.389 35.2 342.971 35.2V31.2ZM331.457 35.7858C328.336 38.907 326.871 43.0937 326.871 48.1H330.871C330.871 43.9063 332.073 40.8263 334.285 38.6142L331.457 35.7858ZM326.871 48.1C326.871 53.1063 328.336 57.293 331.457 60.4142L334.285 57.5858C332.073 55.3737 330.871 52.2937 330.871 48.1H326.871ZM331.457 60.4142C334.53 63.4872 338.42 65 342.971 65V61C339.389 61 336.546 59.8461 334.285 57.5858L331.457 60.4142ZM342.971 65C345.958 65 348.67 64.3054 351.04 62.8562C353.404 61.4105 355.319 59.2801 356.821 56.5693L353.322 54.6307C352.09 56.8533 350.622 58.4228 348.953 59.4438C347.289 60.4612 345.318 61 342.971 61V65ZM354.113 57.3558L366.213 63.9558L368.129 60.4442L356.029 53.8442L354.113 57.3558ZM365.349 61.3745C363.6 65.2354 360.804 68.2554 356.891 70.4568L358.852 73.9432C363.471 71.3446 366.876 67.698 368.993 63.0255L365.349 61.3745ZM356.879 70.4635C353.029 72.6633 348.45 73.8 343.071 73.8V77.8C349.026 77.8 354.313 76.5367 358.863 73.9365L356.879 70.4635ZM411.634 72.4L412.823 74.0084L414.045 73.1056L413.503 71.6866L411.634 72.4ZM405.934 75L406.406 76.9437L406.426 76.9388L406.446 76.9334L405.934 75ZM384.034 70.9L382.663 72.3556L382.67 72.3621L382.677 72.3685L384.034 70.9ZM378.834 34.4H380.834V32.4H378.834V34.4ZM370.534 34.4H368.534V36.4H370.534V34.4ZM370.534 22.4V20.4H368.534V22.4H370.534ZM378.834 22.4V24.4H380.834V22.4H378.834ZM378.834 9.3V7.3H376.834V9.3H378.834ZM394.434 9.3H396.434V7.3H394.434V9.3ZM394.434 22.4H392.434V24.4H394.434V22.4ZM407.834 22.4H409.834V20.4H407.834V22.4ZM407.834 34.4V36.4H409.834V34.4H407.834ZM394.434 34.4V32.4H392.434V34.4H394.434ZM396.134 61.6L394.644 62.9336L394.681 62.975L394.72 63.0142L396.134 61.6ZM407.434 61.4L409.303 60.6866L408.344 58.1767L406.215 59.8148L407.434 61.4ZM410.446 70.7916C409.156 71.7447 407.499 72.5168 405.423 73.0666L406.446 76.9334C408.903 76.2832 411.046 75.322 412.823 74.0084L410.446 70.7916ZM405.463 73.0563C403.431 73.5491 401.256 73.8 398.934 73.8V77.8C401.546 77.8 404.038 77.5176 406.406 76.9437L405.463 73.0563ZM398.934 73.8C392.868 73.8 388.448 72.2564 385.392 69.4315L382.677 72.3685C386.688 76.0769 392.201 77.8 398.934 77.8V73.8ZM385.406 69.4444C382.46 66.6685 380.834 62.4719 380.834 56.5H376.834C376.834 63.1948 378.675 68.5981 382.663 72.3556L385.406 69.4444ZM380.834 56.5V34.4H376.834V56.5H380.834ZM378.834 32.4H370.534V36.4H378.834V32.4ZM372.534 34.4V22.4H368.534V34.4H372.534ZM370.534 24.4H378.834V20.4H370.534V24.4ZM380.834 22.4V9.3H376.834V22.4H380.834ZM378.834 11.3H394.434V7.3H378.834V11.3ZM392.434 9.3V22.4H396.434V9.3H392.434ZM394.434 24.4H407.834V20.4H394.434V24.4ZM405.834 22.4V34.4H409.834V22.4H405.834ZM407.834 32.4H394.434V36.4H407.834V32.4ZM392.434 34.4V56.3H396.434V34.4H392.434ZM392.434 56.3C392.434 58.8919 393.086 61.1925 394.644 62.9336L397.625 60.2664C396.916 59.4742 396.434 58.2414 396.434 56.3H392.434ZM394.72 63.0142C396.386 64.68 398.614 65.4 401.134 65.4V61.4C399.388 61.4 398.283 60.92 397.549 60.1858L394.72 63.0142ZM401.134 65.4C403.983 65.4 406.527 64.6216 408.654 62.9852L406.215 59.8148C404.876 60.8451 403.219 61.4 401.134 61.4V65.4ZM405.566 62.1134L409.766 73.1134L413.503 71.6866L409.303 60.6866L405.566 62.1134Z" fill="#282A30" mask="url(#path-1-outside-1_28_0)"/>
</svg>
